<?xml version="1.0" encoding="iso-8859-1"?>
<!-- Generator: Adobe Illustrator 19.0.0, SVG Export Plug-In . SVG Version: 6.00 Build 0)  -->
<svg version="1.1" id="Capa_1" xmlns="http://www.w3.org/2000/svg" xmlns:xlink="http://www.w3.org/1999/xlink" x="0px" y="0px"
	 viewBox="0 0 512 512" style="enable-background:new 0 0 512 512;" xml:space="preserve">
<path style="fill:#5F82C3;" d="M512,256c0,118.599-80.655,218.345-190.101,247.421c25.417-52.499,31.337-114.519,11.786-174.342
	c-40.084-122.66-172.014-189.6-294.673-149.515c-10.774,3.521-21.115,7.753-30.993,12.624C36.373,81.679,136.647,0,256,0
	C397.385,0,512,114.615,512,256z"/>
<path style="fill:#506EA0;" d="M480,263.218H352.853l-25.317,25.317c-1.953,1.953-5.118,1.953-7.071,0l-25.317-25.317H168
	c-5.523,0-10-4.477-10-10v-180c0-5.523,4.477-10,10-10h256.425c27.835,24.338,50.347,54.604,65.575,88.833v101.167
	C490,258.741,485.523,263.218,480,263.218z"/>
<path style="fill:#B9DCFF;" d="M404.866,251.111c31.096,95.155-4.705,196.092-81.55,251.926C301.864,508.869,279.299,512,256,512
	C114.615,512,0,397.385,0,256c0-23.257,3.12-45.782,8.931-67.199c26.886-37.092,65.298-66.349,112.174-81.667
	C239.221,68.534,366.266,132.995,404.866,251.111z"/>
<path style="fill:#A5CDFA;" d="M404.866,251.111c-38.6-118.117-165.645-182.578-283.761-143.977
	C74.23,122.452,35.818,151.709,8.931,188.801c-0.282,1.04-0.552,2.084-0.822,3.129c-0.127,0.491-0.253,0.981-0.377,1.474
	c-0.523,2.08-1.018,4.171-1.49,6.271c-0.109,0.484-0.222,0.966-0.328,1.45c-0.256,1.169-0.502,2.342-0.741,3.517
	c-0.172,0.843-0.335,1.688-0.498,2.534c-0.309,1.598-0.605,3.201-0.884,4.809c-0.174,1.007-0.344,2.016-0.506,3.027
	c-0.106,0.657-0.214,1.314-0.315,1.974c17.79-32.187,43.785-59.903,76.233-79.65c-6.187,14.331-10.305,32.017-12.114,52.654
	c-0.953,10.878-1.246,22.337-0.911,34.235c-21.773,4.588-43.576,8.216-65.327,10.9c-0.268,3.323-0.474,6.664-0.615,10.021
	c-0.001,0.033-0.003,0.066-0.004,0.099c-0.069,1.663-0.123,3.329-0.16,5c0,0.012-0.001,0.024-0.001,0.037
	c-0.038,1.691-0.059,3.386-0.063,5.085c22.412-2.669,44.877-6.31,67.311-10.95c2.822,33.721,10.3,70.213,22.061,106.836
	c-22.365,4.203-44.717,7.391-67.001,9.565l0,0c0.534,1.188,1.087,2.365,1.638,3.543c0.248,0.53,0.492,1.063,0.743,1.592
	c0.6,1.258,1.215,2.508,1.835,3.755c0.189,0.381,0.377,0.763,0.568,1.142c0.691,1.372,1.393,2.736,2.108,4.093
	c0.101,0.193,0.203,0.385,0.305,0.578c0.784,1.479,1.578,2.952,2.389,4.415c21.276-2.292,42.604-5.482,63.937-9.57
	c12.341,34.05,27.597,65.445,44.681,92.162c-9.456,1.952-18.915,3.704-28.372,5.297c0,0,0,0,0.001,0
	c4.089,2.781,8.267,5.442,12.521,7.988c0.248,0.148,0.497,0.293,0.746,0.441c1.881,1.116,3.777,2.21,5.689,3.279
	c0.257,0.144,0.514,0.289,0.771,0.432c2.103,1.167,4.221,2.31,6.36,3.419c4.834-0.958,9.667-1.946,14.498-2.995
	c3.741,5.113,7.551,10.002,11.42,14.647c0.012,0.004,0.023,0.009,0.035,0.013c6.111,2.347,12.337,4.463,18.662,6.346
	c0.324,0.096,0.647,0.194,0.971,0.289c1.347,0.395,2.698,0.778,4.054,1.151c0.434,0.12,0.87,0.236,1.305,0.353
	c1.341,0.362,2.684,0.718,4.033,1.058c0.278,0.07,0.557,0.135,0.835,0.204c3.093,0.768,6.205,1.486,9.341,2.141
	c-6.602-5.548-13.315-12.184-20.036-19.86c-3.132-3.578-6.226-7.341-9.28-11.257c20.598-5.047,41.147-10.913,61.59-17.594
	s40.491-14.082,60.094-22.173c-0.152,4.965-0.426,9.828-0.841,14.565c-2.35,26.811-8.92,47.761-18.746,60.928
	c0.149-0.012,0.298-0.021,0.447-0.034c1.111-0.089,2.22-0.188,3.327-0.292c0.469-0.044,0.94-0.084,1.408-0.13
	c1.017-0.1,2.029-0.212,3.042-0.324c0.546-0.061,1.094-0.115,1.638-0.179c0.462-0.054,0.922-0.117,1.384-0.174
	c2.21-0.272,4.413-0.568,6.606-0.896c0.174-0.026,0.349-0.05,0.523-0.076c1.26-0.191,2.516-0.394,3.769-0.603
	c0.155-0.026,0.311-0.05,0.466-0.077c1.303-0.22,2.602-0.45,3.899-0.69c0.078-0.014,0.156-0.028,0.234-0.043
	c6.879-1.279,13.663-2.831,20.338-4.646C400.161,447.203,435.962,346.267,404.866,251.111z M300.062,135.85
	c-21.105,12.04-42.965,23.175-65.487,33.342c-6.756-9.799-13.758-18.874-20.952-27.09c-13.647-15.586-27.414-27.428-40.87-35.339
	C217.866,102.918,262.269,113.617,300.062,135.85z M87.013,191.734c3.609-41.178,17.167-68.549,37.198-75.095
	s47.136,7.536,74.365,38.636c5.914,6.754,11.695,14.143,17.312,22.072c-20.853,8.784-42.222,16.761-64.031,23.889
	c-21.809,7.127-43.765,13.308-65.781,18.533C85.926,210.054,86.229,200.678,87.013,191.734z M87.018,240.078
	c23.785-5.531,47.505-12.136,71.051-19.831s46.589-16.372,69.05-25.954c17.751,28.583,33.378,62.644,45.478,99.563
	c-25.912,11.587-52.731,21.921-80.359,30.95c-27.628,9.029-55.374,16.526-83.128,22.477
	C97.074,310.343,89.573,273.627,87.018,240.078z M229.515,438.869c-22.583,7.38-45.294,13.725-68.052,19.059
	c-17.441-26.003-33.095-57.307-45.743-91.616c27.63-6.012,55.242-13.512,82.732-22.495c27.491-8.984,54.203-19.237,80.051-30.702
	c10.053,35.158,15.906,69.664,17.186,100.949C274.173,423.198,252.098,431.489,229.515,438.869z M290.865,285.407
	c-12.135-36.5-27.65-70.367-45.286-99.247c25.238-11.506,49.663-24.202,73.145-38.008c28.494,20.996,52.031,49.154,67.544,82.892
	C356.229,251.238,324.353,269.397,290.865,285.407z M302.79,504.673c6.187-14.331,10.305-32.017,12.114-52.654
	c0.703-8.018,1.042-16.355,1.042-24.946c27.619-12.266,54.293-25.922,79.85-40.921C380.266,434.747,347.702,477.339,302.79,504.673z
	 M315.254,405.444c-1.99-31.649-8.217-65.995-18.366-100.762c34.013-16.111,66.433-34.378,97.03-54.696
	c0.491,1.404,0.978,2.811,1.442,4.231c11.395,34.869,13.345,70.593,7.279,104.398C374.887,375.913,345.685,391.556,315.254,405.444z
	"/>
<path style="fill:#82AAF0;" d="M357.105,472.791C346.767,465.56,340,453.573,340,440c0-4.473,0.745-8.77,2.1-12.786
	C300.696,416.966,270,379.571,270,335c0-52.467,42.533-95,95-95c13.865,0,27.035,2.972,38.911,8.312
	c0.318,0.933,0.647,1.86,0.954,2.8C430.959,330.957,409.943,414.868,357.105,472.791z M130,400c-5.868,0-11.564,0.732-17.011,2.092
	C146.545,387.435,170,353.959,170,315c0-52.467-42.533-95-95-95c-30.482,0-57.608,14.359-74.991,36.679
	c0.309,118.743,81.458,218.476,191.32,247.074C196.85,493.742,200,482.241,200,470C200,431.34,168.66,400,130,400z M340,160
	c0-2.717-0.171-5.393-0.472-8.029c-29.978-26.292-66.544-44.257-105.74-51.886C213.536,112.352,200,134.594,200,160
	c0,9.994,2.109,19.491,5.883,28.092C196.236,195.395,190,206.968,190,220c0,22.091,17.909,40,40,40
	c18.65,0,34.318-12.764,38.747-30.032C269.166,229.976,269.58,230,270,230C308.66,230,340,198.66,340,160z"/>
<path style="fill:#91B9FF;" d="M404.866,251.111c-0.307-0.94-0.636-1.867-0.954-2.8c-9.815-4.413-20.516-7.203-31.761-8.041
	c-25.859,16.528-52.989,31.608-81.286,45.136c-0.758-2.279-1.529-4.548-2.313-6.807c-8.063,10.912-13.849,23.608-16.648,37.39
	c2.203-0.954,4.408-1.904,6.598-2.876c8.454,29.564,13.924,58.659,16.216,85.774c8.943,9.83,19.908,17.786,32.254,23.185
	c23.703-10.947,46.684-22.928,68.824-35.921c-9.439,29.535-25.18,56.844-46.15,79.866c2.193,2.555,4.693,4.839,7.459,6.774
	C409.943,414.868,430.959,330.957,404.866,251.111z M315.254,405.444c-1.99-31.649-8.217-65.995-18.366-100.762
	c34.013-16.111,66.433-34.378,97.03-54.696c0.491,1.404,0.978,2.811,1.442,4.231c11.395,34.869,13.345,70.593,7.279,104.398
	C374.887,375.913,345.685,391.556,315.254,405.444z M245.578,186.16c8.293,13.58,16.108,28.272,23.332,43.813
	c-0.054-0.002-0.109-0.003-0.163-0.004c-2.058,8.025-6.547,15.074-12.631,20.325c-8.73-20.221-18.487-39.076-28.997-56
	c-11.654,4.972-23.468,9.694-35.424,14.168c2.472-8.213,7.511-15.315,14.187-20.369c-0.819-1.867-1.544-3.783-2.201-5.729
	c4.086-1.644,8.159-3.309,12.206-5.014c-5.142-7.26-10.424-14.059-15.818-20.34c0.355-8.432,2.194-16.479,5.275-23.881
	c2.762,2.84,5.523,5.827,8.278,8.975c7.193,8.216,14.196,17.291,20.952,27.09c22.522-10.167,44.382-21.302,65.487-33.342
	c-23.67-13.924-49.934-23.323-77.34-27.46c3.399-3.115,7.101-5.903,11.066-8.305c39.196,7.629,75.761,25.594,105.74,51.886
	c0.301,2.636,0.472,5.313,0.472,8.029c0,1.964-0.102,3.903-0.26,5.827c-6.642-6.348-13.66-12.254-21.016-17.674
	C295.242,161.958,270.816,174.654,245.578,186.16z M199.967,468.698c-8.599,2.399-17.21,4.663-25.83,6.775
	c3.054,3.917,6.148,7.68,9.28,11.257c3.577,4.086,7.152,7.867,10.709,11.356c-0.847,1.931-1.778,3.816-2.789,5.651
	c-0.628-0.164-1.256-0.326-1.881-0.494c-0.589-0.158-1.177-0.316-1.764-0.479c-1.125-0.312-2.247-0.63-3.367-0.957
	c-0.502-0.146-1.003-0.293-1.504-0.442c-1.193-0.355-2.382-0.719-3.568-1.091c-0.416-0.131-0.832-0.263-1.247-0.396
	c-1.258-0.402-2.512-0.813-3.761-1.234c-0.333-0.112-0.665-0.226-0.998-0.339c-1.314-0.449-2.623-0.906-3.927-1.375
	c-0.269-0.097-0.537-0.195-0.805-0.292c-1.349-0.491-2.693-0.991-4.031-1.503c-0.091-0.035-0.181-0.07-0.272-0.105
	c-3.867-4.644-7.675-9.531-11.415-14.642c-4.83,1.048-9.661,2.036-14.494,2.994c-0.041-0.021-0.082-0.042-0.123-0.063
	c-2.114-1.098-4.209-2.227-6.289-3.381c-0.284-0.158-0.566-0.319-0.849-0.478c-1.825-1.022-3.635-2.067-5.432-3.132
	c-0.302-0.179-0.606-0.354-0.906-0.535c-1.969-1.178-3.921-2.382-5.856-3.612c-0.336-0.213-0.668-0.432-1.002-0.647
	c-1.63-1.047-3.247-2.113-4.852-3.196c-0.256-0.173-0.513-0.345-0.769-0.519c9.452-1.593,18.906-3.344,28.357-5.295
	c-17.084-26.717-32.34-58.112-44.681-92.162c-21.333,4.088-42.66,7.278-63.937,9.57c-2.571-4.637-5.005-9.359-7.293-14.165
	c-0.015-0.032-0.031-0.063-0.046-0.095c-0.598-1.257-1.177-2.525-1.755-3.794c-0.162-0.355-0.331-0.708-0.491-1.064
	c22.283-2.174,44.635-5.362,67-9.565c-11.761-36.623-19.239-73.115-22.061-106.836c-22.044,4.56-44.117,8.149-66.141,10.805
	c8.14-10.04,18.285-18.385,29.827-24.429c11.725-1.916,23.454-4.098,35.174-6.568c-0.036-1.274-0.061-2.542-0.082-3.806
	C69.028,220.145,71.997,220,75,220c16.47,0,31.959,4.193,45.463,11.567c-11.126,3.072-22.278,5.914-33.444,8.511
	c2.554,33.55,10.056,70.265,22.093,107.205c19.794-4.244,39.583-9.29,59.329-15.102c-1.466,8.025-3.942,15.695-7.289,22.879
	c-15.128,4.192-30.277,7.954-45.432,11.251c3.553,9.637,7.35,19.026,11.35,28.138c-4.45,2.922-9.153,5.491-14.08,7.643
	c5.308-1.326,10.853-2.049,16.562-2.085c9.622,21.181,20.372,40.716,31.911,57.921c11.773-2.759,23.533-5.795,35.27-9.099
	C198.725,455.114,199.841,461.785,199.967,468.698z"/>
<path style="fill:#FF4B6E;" d="M490,43.218v180c0,5.523-4.477,10-10,10H352.853l-25.317,25.317c-1.953,1.953-5.118,1.953-7.071,0
	l-25.317-25.317H168c-5.523,0-10-4.477-10-10v-180c0-5.523,4.477-10,10-10h312C485.523,33.218,490,37.695,490,43.218z"/>
<path style="fill:#DC325F;" d="M461.5,132.218v10c0,2.761-2.239,5-5,5h-125c-2.761,0-5-2.239-5-5v-10c0-2.761,2.239-5,5-5h125
	C459.261,127.218,461.5,129.457,461.5,132.218z M456.5,87.218h-125c-2.761,0-5,2.239-5,5v10c0,2.761,2.239,5,5,5h125
	c2.761,0,5-2.239,5-5v-10C461.5,89.457,459.261,87.218,456.5,87.218z M413.5,167.218h-82c-2.761,0-5,2.239-5,5v10
	c0,2.761,2.239,5,5,5h82c2.761,0,5-2.239,5-5v-10C418.5,169.457,416.261,167.218,413.5,167.218z M304.751,131.719l-19.581-6.963
	c-2.792-0.993-4.112-4.182-2.841-6.857l8.922-18.77c2.02-4.249-2.413-8.682-6.662-6.662l-18.77,8.922
	c-2.676,1.272-5.865-0.049-6.858-2.84l-6.963-19.581c-1.576-4.433-7.846-4.433-9.422,0l-6.963,19.581
	c-0.993,2.792-4.182,4.112-6.858,2.84l-18.77-8.922c-4.249-2.02-8.682,2.413-6.662,6.662l8.922,18.77
	c1.272,2.676-0.049,5.865-2.841,6.857l-19.581,6.963c-4.433,1.577-4.433,7.846,0,9.422l19.581,6.963
	c2.792,0.993,4.112,4.182,2.841,6.857l-8.922,18.77c-2.02,4.249,2.413,8.682,6.662,6.662l18.77-8.922
	c2.676-1.272,5.865,0.049,6.858,2.84l6.963,19.581c1.576,4.433,7.846,4.433,9.422,0l6.963-19.581
	c0.993-2.792,4.182-4.112,6.858-2.84l18.77,8.922c4.249,2.02,8.682-2.413,6.662-6.662l-8.922-18.77
	c-1.272-2.676,0.049-5.865,2.841-6.857l19.581-6.963C309.184,139.565,309.184,133.296,304.751,131.719z"/>
<path style="fill:#FF4B6E;" d="M150,260c0,11.046-8.954,20-20,20s-20-8.954-20-20s8.954-20,20-20S150,248.954,150,260z M370,290
	c-11.046,0-20,8.954-20,20s8.954,20,20,20s20-8.954,20-20S381.046,290,370,290z M170,400c-11.046,0-20,8.954-20,20s8.954,20,20,20
	s20-8.954,20-20S181.046,400,170,400z M70,390c-10.412,0-18.958,7.958-19.905,18.122c5.621,7.596,11.656,14.866,18.065,21.785
	C68.767,429.962,69.379,430,70,430c11.046,0,20-8.954,20-20S81.046,390,70,390z M10,280c-3.12,0-6.061,0.735-8.693,2.009
	c1.306,12.939,3.574,25.594,6.734,37.892C8.686,319.964,9.339,320,10,320c11.046,0,20-8.954,20-20S21.046,280,10,280z"/>
<g>
</g>
<g>
</g>
<g>
</g>
<g>
</g>
<g>
</g>
<g>
</g>
<g>
</g>
<g>
</g>
<g>
</g>
<g>
</g>
<g>
</g>
<g>
</g>
<g>
</g>
<g>
</g>
<g>
</g>
</svg>
